<svg width="259" height="158" viewBox="0 0 259 158" fill="none" xmlns="http://www.w3.org/2000/svg">
<path d="M243.91 118.89C241.351 118.89 238.992 118.233 236.832 116.918C234.695 115.604 232.982 113.855 231.69 111.671C230.423 109.464 229.789 107.046 229.789 104.417V101.106C229.789 100.848 229.906 100.719 230.141 100.719H238.24C238.428 100.719 238.522 100.848 238.522 101.106V104.417C238.522 105.99 239.05 107.351 240.107 108.502C241.163 109.629 242.431 110.192 243.91 110.192C245.413 110.192 246.692 109.617 247.749 108.467C248.805 107.293 249.333 105.943 249.333 104.417C249.333 102.656 248.183 101.118 245.882 99.8035C245.507 99.5687 245.014 99.287 244.403 98.9583C243.816 98.6062 243.112 98.2071 242.29 97.761C241.469 97.315 240.67 96.8806 239.896 96.458C239.121 96.012 238.37 95.5894 237.642 95.1903C235.012 93.6408 233.052 91.7039 231.761 89.3797C230.493 87.032 229.859 84.4026 229.859 81.4914C229.859 78.8151 230.516 76.3969 231.831 74.237C233.146 72.1006 234.86 70.4103 236.973 69.166C239.109 67.8983 241.422 67.2644 243.91 67.2644C246.469 67.2644 248.817 67.8983 250.953 69.166C253.09 70.4572 254.792 72.1711 256.059 74.3075C257.351 76.4439 257.996 78.8385 257.996 81.4914V87.4077C257.996 87.5955 257.902 87.6894 257.715 87.6894H249.615C249.427 87.6894 249.333 87.5955 249.333 87.4077L249.263 81.4914C249.263 79.8011 248.735 78.4277 247.678 77.3712C246.622 76.3148 245.366 75.7865 243.91 75.7865C242.431 75.7865 241.163 76.35 240.107 77.4769C239.05 78.6038 238.522 79.942 238.522 81.4914C238.522 83.0644 238.851 84.3791 239.508 85.4356C240.189 86.4921 241.422 87.5016 243.206 88.4641C243.394 88.558 243.828 88.7928 244.509 89.1684C245.19 89.5441 245.941 89.9666 246.763 90.4362C247.608 90.8823 248.371 91.2931 249.052 91.6687C249.732 92.0209 250.143 92.2322 250.284 92.3026C252.679 93.6408 254.569 95.2842 255.954 97.2328C257.362 99.1814 258.067 101.576 258.067 104.417C258.067 107.164 257.433 109.629 256.165 111.812C254.874 113.995 253.16 115.721 251.024 116.989C248.887 118.256 246.516 118.89 243.91 118.89Z" fill="#26302A"/>
<path d="M227.23 67.4847C226.797 69.1675 226.244 70.9946 225.571 72.9659C224.898 74.9372 224.153 76.9085 223.336 78.8799C222.566 80.8031 221.797 82.6302 221.028 84.3611H216.34C216.676 83.0148 217.013 81.5724 217.349 80.0338C217.734 78.4952 218.071 76.9566 218.359 75.418C218.696 73.8314 218.984 72.2928 219.225 70.8023C219.513 69.3118 219.753 67.9415 219.946 66.6913H226.725L227.23 67.4847Z" fill="#26302A"/>
<path d="M203.695 118.186H195.42C195.255 118.186 195.173 118.092 195.173 117.904L195.244 97.4089L185.595 68.2856C185.548 68.0978 185.618 68.0039 185.806 68.0039H193.835C194.07 68.0039 194.211 68.0978 194.258 68.2856L199.575 87.6894L204.998 68.2856C205.045 68.0978 205.163 68.0039 205.351 68.0039H213.45C213.638 68.0039 213.708 68.0978 213.661 68.2856L203.907 97.1271L203.977 117.904C203.977 118.092 203.883 118.186 203.695 118.186Z" fill="#26302A"/>
<path d="M182.725 118.186H159.413C159.225 118.186 159.131 118.069 159.131 117.834L159.201 68.2856C159.201 68.0978 159.295 68.0039 159.483 68.0039H182.655C182.843 68.0039 182.937 68.1213 182.937 68.3561V76.4204C182.937 76.6082 182.843 76.7021 182.655 76.7021H167.864V87.9711H182.655C182.843 87.9711 182.937 88.065 182.937 88.2528L183.007 96.4228C183.007 96.6107 182.913 96.7046 182.725 96.7046H167.864V109.312H182.725C182.913 109.312 183.007 109.429 183.007 109.664V117.904C183.007 118.092 182.913 118.186 182.725 118.186Z" fill="#26302A"/>
<path d="M153.339 118.186H130.026C129.838 118.186 129.744 118.069 129.744 117.834L129.815 68.3561C129.815 68.1213 129.932 68.0039 130.167 68.0039H138.196C138.431 68.0039 138.548 68.1213 138.548 68.3561L138.478 109.312H153.339C153.573 109.312 153.691 109.429 153.691 109.664V117.834C153.691 118.069 153.573 118.186 153.339 118.186Z" fill="#26302A"/>
<path d="M123.952 118.186H100.639C100.451 118.186 100.358 118.069 100.358 117.834L100.428 68.3561C100.428 68.1213 100.545 68.0039 100.78 68.0039H108.809C109.044 68.0039 109.161 68.1213 109.161 68.3561L109.091 109.312H123.952C124.187 109.312 124.304 109.429 124.304 109.664V117.834C124.304 118.069 124.187 118.186 123.952 118.186Z" fill="#26302A"/>
<path d="M92.9454 118.186H69.6327C69.4449 118.186 69.351 118.069 69.351 117.834L69.4214 68.2856C69.4214 68.0978 69.5153 68.0039 69.7031 68.0039H92.8749C93.0627 68.0039 93.1566 68.1213 93.1566 68.3561V76.4204C93.1566 76.6082 93.0627 76.7021 92.8749 76.7021H78.0844V87.9711H92.8749C93.0627 87.9711 93.1566 88.065 93.1566 88.2528L93.2271 96.4228C93.2271 96.6107 93.1332 96.7046 92.9454 96.7046H78.0844V109.312H92.9454C93.1332 109.312 93.2271 109.429 93.2271 109.664V117.904C93.2271 118.092 93.1332 118.186 92.9454 118.186Z" fill="#26302A"/>
<path d="M43.2746 118.186H35.1046C34.9168 118.186 34.8229 118.069 34.8229 117.834L34.9637 68.3561C34.9637 68.1213 35.0576 68.0039 35.2455 68.0039H43.345C43.5328 68.0039 43.6268 68.1213 43.6268 68.3561V85.4356L54.9309 68.2856C55.1188 68.0978 55.2948 68.0039 55.4592 68.0039H63.7348C63.9461 68.0039 63.9931 68.0978 63.8757 68.2856L51.4094 88.1824L65.39 117.904C65.5073 118.092 65.39 118.186 65.0378 118.186H56.2339C55.9991 118.186 55.8583 118.092 55.8113 117.904L46.0566 96.7046L43.5563 100.649V117.834C43.5563 118.069 43.4624 118.186 43.2746 118.186Z" fill="#26302A"/>
<path d="M14.9444 118.89C12.3854 118.89 10.026 118.233 7.8661 116.918C5.72969 115.604 4.01587 113.855 2.72464 111.671C1.45688 109.464 0.822998 107.046 0.822998 104.417V101.106C0.822998 100.848 0.940383 100.719 1.17515 100.719H9.27472C9.46254 100.719 9.55645 100.848 9.55645 101.106V104.417C9.55645 105.99 10.0847 107.351 11.1411 108.502C12.1976 109.629 13.4654 110.192 14.9444 110.192C16.447 110.192 17.7264 109.617 18.7829 108.467C19.8394 107.293 20.3676 105.943 20.3676 104.417C20.3676 102.656 19.2172 101.118 16.9165 99.8035C16.5409 99.5687 16.0478 99.287 15.4374 98.9583C14.8505 98.6062 14.1462 98.2071 13.3245 97.761C12.5028 97.315 11.7046 96.8806 10.9299 96.458C10.1551 96.012 9.40385 95.5894 8.67606 95.1903C6.04663 93.6408 4.0863 91.7039 2.79507 89.3797C1.52731 87.032 0.893429 84.4026 0.893429 81.4914C0.893429 78.8151 1.55079 76.3969 2.8655 74.237C4.18021 72.1006 5.89403 70.4103 8.00697 69.166C10.1434 67.8983 12.4559 67.2644 14.9444 67.2644C17.5034 67.2644 19.8511 67.8983 21.9875 69.166C24.1239 70.4572 25.826 72.1711 27.0938 74.3075C28.385 76.4439 29.0306 78.8385 29.0306 81.4914V87.4077C29.0306 87.5955 28.9367 87.6894 28.7489 87.6894H20.6493C20.4615 87.6894 20.3676 87.5955 20.3676 87.4077L20.2972 81.4914C20.2972 79.8011 19.769 78.4277 18.7125 77.3712C17.656 76.3148 16.4 75.7865 14.9444 75.7865C13.4654 75.7865 12.1976 76.35 11.1411 77.4769C10.0847 78.6038 9.55645 79.942 9.55645 81.4914C9.55645 83.0644 9.88513 84.3791 10.5425 85.4356C11.2233 86.4921 12.4559 87.5016 14.2401 88.4641C14.4279 88.558 14.8623 88.7928 15.5431 89.1684C16.2239 89.5441 16.9752 89.9666 17.7969 90.4362C18.6421 90.8823 19.4051 91.2931 20.0859 91.6687C20.7667 92.0209 21.1776 92.2322 21.3184 92.3026C23.7131 93.6408 25.603 95.2842 26.9881 97.2328C28.3968 99.1814 29.1011 101.576 29.1011 104.417C29.1011 107.164 28.4672 109.629 27.1994 111.812C25.9082 113.995 24.1944 115.721 22.058 116.989C19.9216 118.256 17.5504 118.89 14.9444 118.89Z" fill="#26302A"/>
<path d="M192.289 157.736H189.231C189.161 157.736 189.126 157.701 189.126 157.631V154.574C189.126 154.504 189.161 154.468 189.231 154.468H192.289C192.359 154.468 192.394 154.504 192.394 154.574V157.631C192.394 157.701 192.359 157.736 192.289 157.736Z" fill="#CE2027"/>
<path d="M179.087 158C178.13 158 177.247 157.754 176.439 157.262C175.639 156.77 174.994 156.116 174.502 155.299C174.018 154.473 173.777 153.568 173.777 152.584L173.803 144.032C173.803 143.03 174.045 142.13 174.528 141.331C175.002 140.522 175.644 139.877 176.452 139.393C177.26 138.902 178.139 138.656 179.087 138.656C180.071 138.656 180.954 138.897 181.736 139.38C182.527 139.863 183.159 140.514 183.634 141.331C184.117 142.139 184.358 143.039 184.358 144.032L184.385 152.584C184.385 153.568 184.147 154.468 183.673 155.285C183.19 156.111 182.549 156.77 181.749 157.262C180.95 157.754 180.062 158 179.087 158ZM179.087 154.745C179.632 154.745 180.106 154.526 180.511 154.086C180.915 153.638 181.117 153.138 181.117 152.584L181.09 144.032C181.09 143.435 180.901 142.929 180.524 142.517C180.146 142.104 179.667 141.897 179.087 141.897C178.534 141.897 178.06 142.099 177.664 142.503C177.269 142.907 177.071 143.417 177.071 144.032V152.584C177.071 153.173 177.269 153.682 177.664 154.113C178.06 154.534 178.534 154.745 179.087 154.745Z" fill="#CE2027"/>
<path d="M164.134 158C163.159 158 162.267 157.754 161.459 157.262C160.659 156.77 160.022 156.111 159.548 155.285C159.082 154.451 158.849 153.524 158.849 152.505L158.876 144.085C158.876 143.083 159.104 142.178 159.561 141.37C160.018 140.553 160.646 139.899 161.445 139.407C162.254 138.906 163.15 138.656 164.134 138.656C165.135 138.656 166.027 138.897 166.809 139.38C167.599 139.863 168.227 140.518 168.693 141.344C169.167 142.161 169.405 143.074 169.405 144.085V145.323C169.405 145.394 169.369 145.429 169.299 145.429H166.268C166.198 145.429 166.163 145.394 166.163 145.323V144.085C166.163 143.487 165.97 142.973 165.583 142.543C165.197 142.112 164.713 141.897 164.134 141.897C163.492 141.897 163 142.117 162.658 142.556C162.315 142.995 162.144 143.505 162.144 144.085V152.505C162.144 153.164 162.337 153.704 162.724 154.126C163.11 154.539 163.58 154.745 164.134 154.745C164.713 154.745 165.197 154.517 165.583 154.06C165.97 153.594 166.163 153.076 166.163 152.505V151.253C166.163 151.183 166.198 151.148 166.268 151.148H169.326C169.396 151.148 169.431 151.183 169.431 151.253V152.505C169.431 153.515 169.194 154.438 168.719 155.272C168.236 156.098 167.599 156.761 166.809 157.262C166.018 157.754 165.126 158 164.134 158Z" fill="#CE2027"/>
<path d="M137.178 157.736H134.476C134.336 157.736 134.266 157.675 134.266 157.552L134.239 139.169C134.239 139.029 134.31 138.959 134.45 138.959H136.888L141.447 149.593L141.316 139.169C141.316 139.029 141.395 138.959 141.553 138.959H144.228C144.333 138.959 144.386 139.029 144.386 139.169L144.412 157.578C144.412 157.684 144.368 157.736 144.28 157.736H141.909L137.231 147.801L137.428 157.526C137.428 157.666 137.345 157.736 137.178 157.736Z" fill="#CE2027"/>
<path d="M124.332 158C123.357 158 122.479 157.758 121.697 157.275C120.906 156.792 120.269 156.142 119.786 155.325C119.312 154.508 119.075 153.594 119.075 152.584V144.032C119.075 143.048 119.316 142.152 119.799 141.344C120.274 140.527 120.911 139.877 121.71 139.393C122.51 138.902 123.384 138.656 124.332 138.656C125.325 138.656 126.221 138.893 127.021 139.367C127.82 139.85 128.453 140.496 128.918 141.304C129.393 142.112 129.63 143.022 129.63 144.032V145.271C129.63 145.341 129.586 145.376 129.498 145.376H126.467C126.397 145.376 126.362 145.341 126.362 145.271V144.243C126.362 143.558 126.169 142.991 125.782 142.543C125.395 142.095 124.912 141.871 124.332 141.871C123.814 141.871 123.353 142.086 122.949 142.517C122.545 142.947 122.343 143.452 122.343 144.032V152.584C122.343 153.173 122.54 153.682 122.936 154.113C123.331 154.534 123.797 154.745 124.332 154.745C124.912 154.745 125.395 154.539 125.782 154.126C126.169 153.704 126.362 153.19 126.362 152.584V151.253H124.477C124.381 151.253 124.332 151.209 124.332 151.121V148.104C124.332 148.016 124.381 147.972 124.477 147.972H129.524C129.595 147.972 129.63 148.016 129.63 148.104V152.584C129.63 153.594 129.393 154.508 128.918 155.325C128.435 156.142 127.798 156.792 127.008 157.275C126.217 157.758 125.325 158 124.332 158Z" fill="#CE2027"/>
<path d="M114.215 157.736H111.158C111.07 157.736 111.026 157.693 111.026 157.605L111.052 139.064C111.052 138.994 111.087 138.959 111.158 138.959H114.189C114.259 138.959 114.294 138.994 114.294 139.064L114.32 157.605C114.32 157.693 114.285 157.736 114.215 157.736Z" fill="#CE2027"/>
<path d="M101.159 158C100.201 158 99.3182 157.754 98.51 157.262C97.7106 156.77 97.0693 156.116 96.5861 155.299C96.1117 154.473 95.8745 153.568 95.8745 152.584V151.345C95.8745 151.249 95.9184 151.2 96.0063 151.2H99.0371C99.1074 151.2 99.1425 151.249 99.1425 151.345V152.584C99.1425 153.173 99.3402 153.682 99.7355 154.113C100.131 154.534 100.605 154.745 101.159 154.745C101.721 154.745 102.2 154.53 102.595 154.099C102.99 153.66 103.188 153.155 103.188 152.584C103.188 151.925 102.758 151.35 101.897 150.858C101.756 150.77 101.572 150.665 101.343 150.542C101.124 150.41 100.86 150.26 100.552 150.094C100.245 149.927 99.9463 149.764 99.6564 149.606C99.3665 149.439 99.0854 149.281 98.8131 149.132C97.8292 148.552 97.0956 147.827 96.6124 146.957C96.1381 146.079 95.9009 145.095 95.9009 144.006C95.9009 143.004 96.1468 142.099 96.6388 141.291C97.1308 140.492 97.7721 139.859 98.5627 139.393C99.3621 138.919 100.227 138.682 101.159 138.682C102.116 138.682 102.995 138.919 103.794 139.393C104.594 139.877 105.23 140.518 105.705 141.317C106.188 142.117 106.43 143.013 106.43 144.006V146.219C106.43 146.29 106.394 146.325 106.324 146.325H103.293C103.223 146.325 103.188 146.29 103.188 146.219L103.162 144.006C103.162 143.373 102.964 142.859 102.569 142.464C102.173 142.069 101.703 141.871 101.159 141.871C100.605 141.871 100.131 142.082 99.7355 142.503C99.3402 142.925 99.1425 143.426 99.1425 144.006C99.1425 144.594 99.2655 145.086 99.5115 145.481C99.7662 145.877 100.227 146.255 100.895 146.615C100.965 146.65 101.128 146.738 101.383 146.878C101.637 147.019 101.919 147.177 102.226 147.353C102.542 147.52 102.828 147.673 103.083 147.814C103.337 147.946 103.491 148.025 103.544 148.051C104.44 148.552 105.147 149.167 105.665 149.896C106.192 150.625 106.456 151.521 106.456 152.584C106.456 153.612 106.219 154.534 105.744 155.351C105.261 156.168 104.62 156.814 103.82 157.288C103.021 157.763 102.134 158 101.159 158Z" fill="#CE2027"/>
<path d="M91.3705 157.736H82.647C82.5768 157.736 82.5416 157.693 82.5416 157.605L82.568 139.064C82.568 138.994 82.6031 138.959 82.6734 138.959H91.3441C91.4144 138.959 91.4496 139.003 91.4496 139.09V142.108C91.4496 142.178 91.4144 142.213 91.3441 142.213H85.8096V146.43H91.3441C91.4144 146.43 91.4496 146.465 91.4496 146.536L91.4759 149.593C91.4759 149.663 91.4408 149.698 91.3705 149.698H85.8096V154.416H91.3705C91.4408 154.416 91.4759 154.46 91.4759 154.548V157.631C91.4759 157.701 91.4408 157.736 91.3705 157.736Z" fill="#CE2027"/>
<path d="M72.0814 157.71L67.2453 157.736C67.1575 157.736 67.1135 157.693 67.1135 157.605L67.1662 139.064C67.1662 138.994 67.2014 138.959 67.2717 138.959L72.3186 138.932C73.3201 138.906 74.2249 139.134 75.0332 139.618C75.8502 140.101 76.5002 140.755 76.9834 141.581C77.4754 142.398 77.7213 143.303 77.7213 144.295V152.044C77.7213 153.08 77.471 154.029 76.9702 154.89C76.4607 155.742 75.7843 156.423 74.9409 156.933C74.0976 157.433 73.1444 157.693 72.0814 157.71ZM72.3186 142.161L70.4342 142.187L70.4079 154.416H72.0814C72.7491 154.416 73.3113 154.183 73.7681 153.717C74.2249 153.252 74.4533 152.694 74.4533 152.044V144.269C74.4533 143.698 74.2425 143.202 73.8208 142.78C73.3992 142.35 72.8984 142.143 72.3186 142.161Z" fill="#CE2027"/>
<path d="M25 47H235V50H25V47Z" fill="#26302A"/>
<path d="M106 9H155V58H106V9Z" fill="white"/>
<path d="M99.6547 34.8974H94.9921C94.9546 34.8974 94.9358 34.8739 94.9358 34.827L94.9499 24.9173C94.9499 24.8798 94.9687 24.861 95.0062 24.861H99.6406C99.6781 24.861 99.6969 24.8845 99.6969 24.9314V26.5443C99.6969 26.5819 99.6781 26.6006 99.6406 26.6006H96.6825V28.8544H99.6406C99.6781 28.8544 99.6969 28.8732 99.6969 28.9108L99.711 30.5448C99.711 30.5823 99.6922 30.6011 99.6547 30.6011H96.6825V33.1226H99.6547C99.6922 33.1226 99.711 33.146 99.711 33.193V34.8411C99.711 34.8786 99.6922 34.8974 99.6547 34.8974Z" fill="#26302A"/>
<path d="M89.6126 35.0383C89.0914 35.0383 88.6148 34.9068 88.1829 34.6439C87.7556 34.3809 87.4152 34.0288 87.1616 33.5874C86.9128 33.1413 86.7883 32.646 86.7883 32.1013L86.8024 27.6008C86.8024 27.0655 86.9245 26.5819 87.1687 26.1499C87.4128 25.7132 87.7485 25.3634 88.1758 25.1005C88.6078 24.8328 89.0867 24.699 89.6126 24.699C90.1479 24.699 90.6245 24.8281 91.0424 25.0864C91.465 25.3446 91.8007 25.6944 92.0495 26.1358C92.3031 26.5725 92.4299 27.0608 92.4299 27.6008V28.2628C92.4299 28.3004 92.4111 28.3192 92.3735 28.3192H90.7536C90.716 28.3192 90.6973 28.3004 90.6973 28.2628V27.6008C90.6973 27.2815 90.594 27.0068 90.3874 26.7767C90.1808 26.5466 89.9225 26.4316 89.6126 26.4316C89.2699 26.4316 89.0069 26.549 88.8238 26.7838C88.6407 27.0185 88.5491 27.2909 88.5491 27.6008V32.1013C88.5491 32.4535 88.6524 32.7422 88.859 32.9676C89.0656 33.1883 89.3168 33.2986 89.6126 33.2986C89.9225 33.2986 90.1808 33.1766 90.3874 32.9324C90.594 32.6835 90.6973 32.4065 90.6973 32.1013V31.4322C90.6973 31.3947 90.716 31.3759 90.7536 31.3759H92.3876C92.4252 31.3759 92.4439 31.3947 92.4439 31.4322V32.1013C92.4439 32.6413 92.3172 33.1343 92.0636 33.5804C91.8054 34.0217 91.465 34.3762 91.0424 34.6439C90.6198 34.9068 90.1432 35.0383 89.6126 35.0383Z" fill="#26302A"/>
<path d="M80.3946 34.8974H78.9508C78.8756 34.8974 78.8381 34.8645 78.8381 34.7988L78.824 24.9737C78.824 24.8986 78.8615 24.861 78.9367 24.861H80.2396L82.6766 30.5448L82.6061 24.9737C82.6061 24.8986 82.6484 24.861 82.7329 24.861H84.1626C84.219 24.861 84.2472 24.8986 84.2472 24.9737L84.2613 34.8129C84.2613 34.8692 84.2378 34.8974 84.1908 34.8974H82.9231L80.4228 29.5869L80.5284 34.7847C80.5284 34.8599 80.4838 34.8974 80.3946 34.8974Z" fill="#26302A"/>
<path d="M76.0575 34.8974H74.4235C74.3765 34.8974 74.353 34.8739 74.353 34.827L74.3671 24.9173C74.3671 24.8798 74.3859 24.861 74.4235 24.861H76.0434C76.0809 24.861 76.0997 24.8798 76.0997 24.9173L76.1138 34.827C76.1138 34.8739 76.095 34.8974 76.0575 34.8974Z" fill="#26302A"/>
<path d="M69.0792 35.0383C68.5674 35.0383 68.0955 34.9068 67.6635 34.6439C67.2362 34.3809 66.8935 34.0311 66.6352 33.5945C66.3817 33.1531 66.2549 32.6695 66.2549 32.1436V31.4815C66.2549 31.4299 66.2784 31.4041 66.3253 31.4041H67.9452C67.9828 31.4041 68.0016 31.4299 68.0016 31.4815V32.1436C68.0016 32.4582 68.1072 32.7305 68.3185 32.9606C68.5298 33.186 68.7834 33.2986 69.0792 33.2986C69.3797 33.2986 69.6356 33.1836 69.8469 32.9535C70.0582 32.7188 70.1638 32.4488 70.1638 32.1436C70.1638 31.7914 69.9337 31.4839 69.4736 31.2209C69.3985 31.174 69.2999 31.1176 69.1778 31.0519C69.0604 30.9815 68.9195 30.9016 68.7552 30.8124C68.5908 30.7232 68.4312 30.6364 68.2763 30.5518C68.1213 30.4626 67.9711 30.3781 67.8255 30.2983C67.2996 29.9884 66.9075 29.601 66.6493 29.1362C66.3957 28.6666 66.269 28.1407 66.269 27.5585C66.269 27.0232 66.4004 26.5396 66.6634 26.1076C66.9263 25.6804 67.2691 25.3423 67.6917 25.0934C68.119 24.8399 68.5815 24.7131 69.0792 24.7131C69.591 24.7131 70.0605 24.8399 70.4878 25.0934C70.9151 25.3517 71.2555 25.6944 71.509 26.1217C71.7673 26.549 71.8964 27.0279 71.8964 27.5585V28.7418C71.8964 28.7793 71.8776 28.7981 71.8401 28.7981H70.2202C70.1826 28.7981 70.1638 28.7793 70.1638 28.7418L70.1497 27.5585C70.1497 27.2204 70.0441 26.9458 69.8328 26.7345C69.6215 26.5232 69.3703 26.4175 69.0792 26.4175C68.7834 26.4175 68.5298 26.5302 68.3185 26.7556C68.1072 26.981 68.0016 27.2486 68.0016 27.5585C68.0016 27.8731 68.0673 28.1361 68.1988 28.3473C68.3349 28.5586 68.5815 28.7605 68.9383 28.9531C68.9759 28.9718 69.0627 29.0188 69.1989 29.0939C69.3351 29.169 69.4853 29.2536 69.6497 29.3475C69.8187 29.4367 69.9713 29.5188 70.1075 29.594C70.2436 29.6644 70.3258 29.7067 70.354 29.7208C70.8329 29.9884 71.2109 30.3171 71.4879 30.7068C71.7696 31.0965 71.9105 31.5754 71.9105 32.1436C71.9105 32.6929 71.7837 33.186 71.5302 33.6226C71.2719 34.0593 70.9292 34.4044 70.5019 34.658C70.0746 34.9115 69.6004 35.0383 69.0792 35.0383Z" fill="#26302A"/>
<path d="M182.208 34.8974H180.427C180.384 34.8974 180.373 34.8739 180.391 34.827L183.364 26.5584H179.426C179.389 26.5584 179.37 26.5396 179.37 26.502V24.9314C179.37 24.8845 179.389 24.861 179.426 24.861H185.012C185.049 24.861 185.068 24.8845 185.068 24.9314V26.5443L182.3 34.827C182.281 34.8739 182.251 34.8974 182.208 34.8974Z" fill="#26302A"/>
<path d="M174.322 35.0383C173.819 35.0383 173.352 34.9068 172.92 34.6439C172.493 34.3809 172.148 34.0335 171.885 33.6015C171.627 33.1695 171.497 32.6929 171.497 32.1717V31.2773C171.497 30.8735 171.575 30.4955 171.73 30.1433C171.885 29.7912 172.091 29.4813 172.35 29.2136C172.138 28.9836 171.972 28.7136 171.85 28.4037C171.732 28.0891 171.674 27.7534 171.674 27.3965C171.674 26.9035 171.791 26.448 172.026 26.0302C172.26 25.6217 172.58 25.2977 172.984 25.0582C173.387 24.8187 173.833 24.699 174.322 24.699C174.815 24.699 175.261 24.8211 175.66 25.0652C176.059 25.3094 176.378 25.6357 176.618 26.0442C176.857 26.448 176.977 26.8988 176.977 27.3965C176.977 27.7534 176.916 28.0867 176.794 28.3966C176.676 28.7018 176.512 28.9742 176.301 29.2136C176.559 29.4719 176.763 29.7794 176.914 30.1363C177.064 30.4931 177.139 30.8735 177.139 31.2773V32.1717C177.139 32.6929 177.012 33.1719 176.759 33.6085C176.5 34.0452 176.16 34.3927 175.737 34.6509C175.315 34.9092 174.843 35.0383 174.322 35.0383ZM174.322 28.3614C174.575 28.3614 174.789 28.2675 174.963 28.0797C175.141 27.8919 175.23 27.6642 175.23 27.3965C175.23 27.1289 175.141 26.8988 174.963 26.7063C174.789 26.5138 174.575 26.4175 174.322 26.4175C174.073 26.4175 173.857 26.5138 173.674 26.7063C173.491 26.8988 173.399 27.1289 173.399 27.3965C173.399 27.6548 173.491 27.8801 173.674 28.0727C173.857 28.2652 174.073 28.3614 174.322 28.3614ZM174.322 33.3127C174.622 33.3127 174.876 33.2024 175.082 32.9817C175.289 32.761 175.392 32.491 175.392 32.1717V31.2773C175.392 30.9674 175.289 30.6997 175.082 30.4744C174.876 30.249 174.622 30.1363 174.322 30.1363C174.026 30.1363 173.772 30.2466 173.561 30.4673C173.35 30.688 173.244 30.958 173.244 31.2773V32.1717C173.244 32.4769 173.35 32.7446 173.561 32.9747C173.772 33.2 174.026 33.3127 174.322 33.3127Z" fill="#26302A"/>
<path d="M166.364 35.0383C165.857 35.0383 165.388 34.9068 164.956 34.6439C164.524 34.3809 164.179 34.0288 163.92 33.5874C163.667 33.1413 163.54 32.6554 163.54 32.1295V31.8407C163.54 31.8032 163.564 31.7844 163.61 31.7844H165.23C165.268 31.7844 165.287 31.8032 165.287 31.8407V32.1295C165.287 32.4441 165.392 32.7164 165.604 32.9465C165.815 33.1719 166.069 33.2846 166.364 33.2846C166.665 33.2846 166.921 33.1719 167.132 32.9465C167.343 32.7164 167.449 32.4441 167.449 32.1295V31.1294C167.111 31.2749 166.749 31.3477 166.364 31.3477C165.843 31.3477 165.374 31.2186 164.956 30.9603C164.533 30.7021 164.193 30.3546 163.934 29.9179C163.681 29.4766 163.554 28.993 163.554 28.4671V27.5726C163.554 27.0373 163.683 26.556 163.941 26.1288C164.195 25.6968 164.535 25.3517 164.963 25.0934C165.39 24.8305 165.857 24.699 166.364 24.699C166.876 24.699 167.346 24.8281 167.773 25.0864C168.2 25.3446 168.543 25.6944 168.801 26.1358C169.064 26.5725 169.196 27.0514 169.196 27.5726V28.4671L169.21 32.1295C169.21 32.6554 169.081 33.139 168.822 33.5804C168.564 34.0217 168.219 34.3762 167.787 34.6439C167.36 34.9068 166.886 35.0383 166.364 35.0383ZM166.364 29.601C166.674 29.601 166.932 29.4907 167.139 29.27C167.346 29.0493 167.449 28.7817 167.449 28.4671V27.5726C167.449 27.2627 167.343 26.9951 167.132 26.7697C166.921 26.5443 166.665 26.4316 166.364 26.4316C166.069 26.4316 165.817 26.542 165.611 26.7626C165.404 26.9833 165.301 27.2533 165.301 27.5726V28.4671C165.301 28.7723 165.404 29.0376 165.611 29.2629C165.817 29.4883 166.069 29.601 166.364 29.601Z" fill="#26302A"/>
<path d="M161.062 34.8974H159.428C159.381 34.8974 159.358 34.8739 159.358 34.827L159.372 24.9173C159.372 24.8798 159.391 24.861 159.428 24.861H161.048C161.086 24.861 161.105 24.8798 161.105 24.9173L161.119 34.827C161.119 34.8739 161.1 34.8974 161.062 34.8974Z" fill="#26302A"/>
<path fill-rule="evenodd" clip-rule="evenodd" d="M113.379 29.0409C113.352 18.4902 128.236 2.05496 128.87 1.3588L130.111 -1.1143e-05L131.367 1.35919C132.011 2.05262 146.98 18.3664 147.007 29.1269C147.012 33.2912 145.474 37.302 142.69 40.3844C139.906 43.467 136.073 45.4024 131.932 45.8171L131.932 55.8749L128.575 55.8664L128.539 45.806C124.396 45.3699 120.554 43.4149 117.754 40.3187C114.954 37.2226 113.395 33.2047 113.379 29.0409ZM140.283 37.977C142.435 35.5323 143.62 32.3834 143.616 29.1183C143.596 21.3395 133.698 9.19059 130.14 5.07275C126.604 9.20962 116.75 21.4267 116.769 29.0496C116.782 32.3148 117.983 35.4697 120.147 37.9255C122.312 40.3812 125.292 41.9699 128.531 42.395L128.483 19.8981L131.84 19.9067L131.922 42.4037C135.159 41.9951 138.131 40.4217 140.283 37.977Z" fill="#26302A"/>
</svg>
